<svg width="90" height="88" fill="none" xmlns="http://www.w3.org/2000/svg"><path fill-rule="evenodd" clip-rule="evenodd" d="M33.437 1.513a3 3 0 0 0-4.243 0l-9.828 9.828-9.828-9.828a3 3 0 0 0-4.243 0L.88 5.929a3 3 0 0 0 0 4.243L10.707 20 .879 29.828a3 3 0 0 0 0 4.243l4.416 4.416a3 3 0 0 0 4.243 0l9.828-9.828 9.828 9.828a3 3 0 0 0 4.243 0l4.416-4.416a3 3 0 0 0 0-4.243L28.025 20l9.828-9.828a3 3 0 0 0 0-4.243l-4.416-4.416Z" fill="#31C3BD"/><path fill-rule="evenodd" clip-rule="evenodd" d="M89.329 19.838C89.329 8.882 80.447 0 69.49 0 58.534 0 49.652 8.882 49.652 19.838c0 10.957 8.882 19.838 19.839 19.838 10.956 0 19.838-8.881 19.838-19.838Zm-27.92 0a8.082 8.082 0 1 1 16.164 0 8.082 8.082 0 0 1-16.165 0Z" fill="#F2B137"/><path fill-rule="evenodd" clip-rule="evenodd" d="M55.892 49.513a3 3 0 0 1 4.243 0l9.828 9.828 9.828-9.828a3 3 0 0 1 4.243 0l4.416 4.416a3 3 0 0 1 0 4.243L78.622 68l9.828 9.828a3 3 0 0 1 0 4.243l-4.416 4.416a3 3 0 0 1-4.243 0l-9.828-9.828-9.828 9.828a3 3 0 0 1-4.243 0l-4.416-4.416a3 3 0 0 1 0-4.243L61.304 68l-9.828-9.828a3 3 0 0 1 0-4.243l4.416-4.416Z" fill="#31C3BD"/><path fill-rule="evenodd" clip-rule="evenodd" d="M0 67.838C0 56.882 8.882 48 19.838 48c10.957 0 19.839 8.882 19.839 19.838 0 10.957-8.882 19.839-19.838 19.839C8.881 87.677 0 78.794 0 67.838Zm27.92 0a8.082 8.082 0 1 0-16.164 0 8.082 8.082 0 0 0 16.165 0Z" fill="#F2B137"/></svg>